<svg width="52" height="36" viewBox="0 0 52 36" fill="none" xmlns="http://www.w3.org/2000/svg">
<g filter="url(#filter0_d_27_441)">
<path d="M7 0C4.23858 0 2 2.23858 2 5V31.4514C2 28.69 4.23858 26.4514 7 26.4514H45C47.7614 26.4514 50 28.69 50 31.4514V5C50 2.23858 47.7614 0 45 0H7Z" fill="#EF4444"/>
<path d="M7 0C4.23858 0 2 2.23858 2 5V31.4514C2 28.69 4.23858 26.4514 7 26.4514H45C47.7614 26.4514 50 28.69 50 31.4514V5C50 2.23858 47.7614 0 45 0H7Z" fill="#EF4444"/>
<path d="M7 2C4.23858 2 2 4.23858 2 7V11.4514C2 8.69002 4.23858 6.45145 7 6.45145H45C47.7614 6.45145 50 8.69002 50 11.4514V7C50 4.23858 47.7614 2 45 2H7Z" fill="#A33737"/>
<path d="M7 20C4.23858 20 2 22.2386 2 25V29.4514C2 26.69 4.23858 24.4514 7 24.4514H45C47.7614 24.4514 50 26.69 50 29.4514V25C50 22.2386 47.7614 20 45 20H7Z" fill="#A33737"/>
<path d="M25.9944 21.32C24.2024 21.32 22.6877 21.032 21.4504 20.456C20.2344 19.88 19.2957 19.0587 18.6344 17.992C17.9944 16.904 17.6317 15.6133 17.5464 14.12C17.525 13.6933 17.5144 13.2133 17.5144 12.68C17.5144 12.1253 17.525 11.6453 17.5464 11.24C17.6317 9.72534 18.0157 8.43468 18.6984 7.36801C19.381 6.30134 20.3304 5.48001 21.5464 4.90401C22.7837 4.32801 24.2664 4.04001 25.9944 4.04001C27.7437 4.04001 29.2264 4.32801 30.4424 4.90401C31.6797 5.48001 32.6397 6.30134 33.3224 7.36801C34.005 8.43468 34.389 9.72534 34.4744 11.24C34.4957 11.6453 34.5064 12.1253 34.5064 12.68C34.5064 13.2133 34.4957 13.6933 34.4744 14.12C34.389 15.6133 34.0157 16.904 33.3544 17.992C32.7144 19.0587 31.7757 19.88 30.5384 20.456C29.3224 21.032 27.8077 21.32 25.9944 21.32ZM25.9944 17.416C26.9544 17.416 27.6477 17.128 28.0744 16.552C28.5224 15.976 28.7784 15.112 28.8424 13.96C28.8637 13.64 28.8744 13.2133 28.8744 12.68C28.8744 12.1467 28.8637 11.72 28.8424 11.4C28.7784 10.2693 28.5224 9.41601 28.0744 8.84001C27.6477 8.24268 26.9544 7.94401 25.9944 7.94401C25.0557 7.94401 24.3624 8.24268 23.9144 8.84001C23.4664 9.41601 23.221 10.2693 23.1784 11.4C23.157 11.72 23.1464 12.1467 23.1464 12.68C23.1464 13.2133 23.157 13.64 23.1784 13.96C23.221 15.112 23.4664 15.976 23.9144 16.552C24.3624 17.128 25.0557 17.416 25.9944 17.416Z" fill="white"/>
</g>
<defs>
<filter id="filter0_d_27_441" x="0" y="0" width="52" height="35.4514" filterUnits="userSpaceOnUse" color-interpolation-filters="sRGB">
<feFlood flood-opacity="0" result="BackgroundImageFix"/>
<feColorMatrix in="SourceAlpha" type="matrix" values="0 0 0 0 0 0 0 0 0 0 0 0 0 0 0 0 0 0 127 0" result="hardAlpha"/>
<feOffset dy="2"/>
<feGaussianBlur stdDeviation="1"/>
<feComposite in2="hardAlpha" operator="out"/>
<feColorMatrix type="matrix" values="0 0 0 0 0 0 0 0 0 0 0 0 0 0 0 0 0 0 0.15 0"/>
<feBlend mode="normal" in2="BackgroundImageFix" result="effect1_dropShadow_27_441"/>
<feBlend mode="normal" in="SourceGraphic" in2="effect1_dropShadow_27_441" result="shape"/>
</filter>
</defs>
</svg>
