<svg width="52" height="36" viewBox="0 0 52 36" fill="none" xmlns="http://www.w3.org/2000/svg">
<g filter="url(#filter0_d_27_441)">
<path d="M7 0C4.23858 0 2 2.23858 2 5V31.4514C2 28.69 4.23858 26.4514 7 26.4514H45C47.7614 26.4514 50 28.69 50 31.4514V5C50 2.23858 47.7614 0 45 0H7Z" fill="#EF4444"/>
<path d="M7 0C4.23858 0 2 2.23858 2 5V31.4514C2 28.69 4.23858 26.4514 7 26.4514H45C47.7614 26.4514 50 28.69 50 31.4514V5C50 2.23858 47.7614 0 45 0H7Z" fill="#EF4444"/>
<path d="M7 2C4.23858 2 2 4.23858 2 7V11.4514C2 8.69002 4.23858 6.45145 7 6.45145H45C47.7614 6.45145 50 8.69002 50 11.4514V7C50 4.23858 47.7614 2 45 2H7Z" fill="#A33737"/>
<path d="M7 20C4.23858 20 2 22.2386 2 25V29.4514C2 26.69 4.23858 24.4514 7 24.4514H45C47.7614 24.4514 50 26.69 50 29.4514V25C50 22.2386 47.7614 20 45 20H7Z" fill="#A33737"/>
</g>
<defs>
<filter id="filter0_d_27_441" x="0" y="0" width="52" height="35.4514" filterUnits="userSpaceOnUse" color-interpolation-filters="sRGB">
<feFlood flood-opacity="0" result="BackgroundImageFix"/>
<feColorMatrix in="SourceAlpha" type="matrix" values="0 0 0 0 0 0 0 0 0 0 0 0 0 0 0 0 0 0 127 0" result="hardAlpha"/>
<feOffset dy="2"/>
<feGaussianBlur stdDeviation="1"/>
<feComposite in2="hardAlpha" operator="out"/>
<feColorMatrix type="matrix" values="0 0 0 0 0 0 0 0 0 0 0 0 0 0 0 0 0 0 0.15 0"/>
<feBlend mode="normal" in2="BackgroundImageFix" result="effect1_dropShadow_27_441"/>
<feBlend mode="normal" in="SourceGraphic" in2="effect1_dropShadow_27_441" result="shape"/>
</filter>
</defs>
</svg>
